<?xml version="1.0" encoding="utf-8"?>
<!-- Generator: Adobe Illustrator 25.2.0, SVG Export Plug-In . SVG Version: 6.00 Build 0)  -->
<svg version="1.1" id="Layer_1" xmlns="http://www.w3.org/2000/svg" xmlns:xlink="http://www.w3.org/1999/xlink" x="0px" y="0px"
	 viewBox="0 0 512 512" style="enable-background:new 0 0 512 512;" xml:space="preserve">
<style type="text/css">
	.st0{fill:#FFFFFF;}
</style>
<g>
	<path class="st0" d="M123.61,260.12c0,5.14-1.36,9.05-4.04,11.58c-2.7,2.53-6.51,3.83-11.35,3.83c-4.83,0-8.65-1.34-11.33-3.98
		c-2.7-2.62-4.05-6.63-4.05-11.9v-37.81H74.93v38.19c0,10.11,2.99,17.81,8.9,22.94c5.88,5.08,14.01,7.68,24.18,7.68
		c5.04,0,9.67-0.65,13.78-1.92c4.14-1.27,7.72-3.23,10.62-5.82c2.92-2.59,5.2-5.86,6.76-9.74c1.56-3.85,2.36-8.43,2.36-13.63v-37.7
		h-17.92V260.12z"/>
	<rect x="27.54" y="245.8" class="st0" width="17.92" height="44.76"/>
	<rect x="4.81" y="221.84" class="st0" width="63.38" height="15.12"/>
	<path class="st0" d="M354.04,231.62c-3.58-3.06-7.9-5.48-12.83-7.2c-4.94-1.71-10.42-2.58-16.31-2.58h-29.88v14.82h29.88
		c3.24,0,6.25,0.49,8.93,1.44c2.67,0.96,4.98,2.31,6.85,4.04c1.87,1.71,3.36,3.79,4.42,6.19c1.05,2.39,1.59,5.04,1.59,7.87v0.19
		c0,2.89-0.55,5.53-1.59,7.85c-1.06,2.34-2.55,4.39-4.42,6.11c-1.87,1.71-4.17,3.05-6.84,3.98c-2.7,0.93-5.7,1.4-8.94,1.4h-11.96
		v-29.06h-17.92v43.88h29.88c5.89,0,11.37-0.88,16.31-2.64c4.94-1.75,9.25-4.18,12.83-7.25c3.58-3.06,6.39-6.73,8.35-10.9
		c1.96-4.18,2.95-8.74,2.95-13.57v-0.19c0-4.83-0.99-9.39-2.95-13.53C360.44,238.34,357.62,234.69,354.04,231.62z"/>
	<polygon class="st0" points="244.49,261.5 281.23,261.5 281.23,246.68 228.31,246.68 228.31,290.56 286.57,290.56 286.57,275.93 
		244.49,275.93 	"/>
	<rect x="228.31" y="221.84" class="st0" width="57.73" height="14.82"/>
	<polygon class="st0" points="150.4,290.56 168.09,290.56 168.09,264.08 150.4,243.53 	"/>
	<polygon class="st0" points="200.56,261.18 166.63,221.84 150.4,221.84 150.4,229.18 168.09,249.74 203.2,290.56 218.26,290.56 
		218.26,283.59 218.26,281.69 218.26,221.84 200.56,221.84 	"/>
	<polygon class="st0" points="452.04,233.73 446.19,221.35 430.11,221.35 426.45,229.07 421.88,238.73 397.38,290.56 415.78,290.56 
		422.62,275.47 429.19,260.93 429.15,260.93 437.93,241.64 443.6,254.12 446.71,260.93 439.05,260.93 432.46,275.47 453.25,275.47 
		460.09,290.56 478.9,290.56 452.46,234.59 	"/>
	<rect x="489.29" y="221.84" class="st0" width="17.9" height="17.9"/>
	<rect x="489.29" y="248.58" class="st0" width="17.9" height="41.98"/>
	<rect x="371.34" y="273.71" class="st0" width="16.76" height="16.76"/>
</g>
</svg>
